<?xml version="1.0" encoding="UTF-8"?>
<!DOCTYPE svg PUBLIC "-//W3C//DTD SVG 1.1//EN" "http://www.w3.org/Graphics/SVG/1.1/DTD/svg11.dtd">
<!-- Creator: CorelDRAW X5 -->
<svg xmlns="http://www.w3.org/2000/svg" xml:space="preserve" width="2048px" height="2048px" style="shape-rendering:geometricPrecision; text-rendering:geometricPrecision; image-rendering:optimizeQuality; fill-rule:evenodd; clip-rule:evenodd"
viewBox="0 0 2048 2048"
 xmlns:xlink="http://www.w3.org/1999/xlink">
 <defs>
  <style type="text/css">
   <![CDATA[
    .fil8 {fill:none}
    .fil6 {fill:#555555}
    .fil3 {fill:#616161}
    .fil7 {fill:#FF9100}
    .fil5 {fill:#555555;fill-rule:nonzero}
    .fil2 {fill:#616161;fill-rule:nonzero}
    .fil4 {fill:#656565;fill-rule:nonzero}
    .fil1 {fill:#757575;fill-rule:nonzero}
    .fil0 {fill:#FF9100;fill-rule:nonzero}
   ]]>
  </style>
 </defs>
 <g id="Layer_x0020_1">
  <metadata id="CorelCorpID_0Corel-Layer"/>
  <g id="_220492776">
   <path class="fil0" d="M1408 768l0 208c0,101 -43,194 -113,260 -70,66 -165,108 -271,108 -105,0 -201,-41 -271,-108 -70,-67 -113,-159 -113,-260l0 -208 0 -32 32 0 96 0 0 64 -64 0 0 176c0,83 36,159 93,214 58,55 138,90 227,90 88,0 169,-34 227,-90 58,-55 93,-131 93,-214l0 -176 -64 0 0 -64 96 0 32 0 0 32z"/>
   <polygon class="fil0" points="1056,1312 1056,1760 992,1760 992,1312 "/>
   <path class="fil0" d="M768 1792c-18,0 -32,-14 -32,-32 0,-18 14,-32 32,-32l512 0c18,0 32,14 32,32 0,18 -14,32 -32,32l-512 0z"/>
   <g>
    <path class="fil1" d="M1280 960c0,70 -29,134 -75,181 -46,46 -110,75 -181,75l0 0c-70,0 -134,-29 -181,-75 -46,-46 -75,-110 -75,-181 0,-149 0,-299 0,-448 0,-70 29,-134 75,-181 46,-46 110,-75 181,-75l0 0c70,0 134,29 181,75 46,46 75,110 75,181 0,149 0,299 0,448z"/>
    <path class="fil2" d="M1280 960c0,70 -29,134 -75,181 -46,46 -110,75 -181,75l0 0c-70,0 -134,-29 -181,-75 -46,-46 -75,-110 -75,-181l0 -192 512 0 0 192z"/>
    <path class="fil3" d="M768 512l160 0c18,0 32,14 32,32l0 0c0,18 -14,32 -32,32l-160 0 0 -64z"/>
    <path class="fil3" d="M768 635l160 0c18,0 32,14 32,32l0 0c0,18 -14,32 -32,32l-160 0 0 -64z"/>
    <g>
     <path class="fil3" d="M1280 512l-160 0c-18,0 -32,14 -32,32l0 0c0,18 14,32 32,32l160 0 0 -64z"/>
     <path class="fil3" d="M1280 635l-160 0c-18,0 -32,14 -32,32l0 0c0,18 14,32 32,32l160 0 0 -64z"/>
    </g>
   </g>
   <g>
    <path class="fil4" d="M1024 1216l0 0 0 0c-70,0 -134,-29 -181,-75 -46,-46 -75,-110 -75,-181 0,-149 0,-299 0,-448 0,-70 29,-134 75,-181 46,-46 110,-75 181,-75l0 0 0 0 0 960z"/>
    <path class="fil5" d="M1024 1216l0 0 0 0c-70,0 -134,-29 -181,-75 -46,-46 -75,-110 -75,-181l0 -192 256 0 0 448z"/>
    <path class="fil6" d="M768 512l160 0c18,0 32,14 32,32l0 0c0,18 -14,32 -32,32l-160 0 0 -64z"/>
    <path class="fil6" d="M768 635l160 0c18,0 32,14 32,32l0 0c0,18 -14,32 -32,32l-160 0 0 -64z"/>
   </g>
   <rect class="fil7" x="768" y="761" width="512" height="17"/>
  </g>
  <rect class="fil8" width="2048" height="2048"/>
 </g>
</svg>
